<mxfile host="65bd71144e">
    <diagram id="2569vQA7NOPKPgQd0dDL" name="Page-1">
        <mxGraphModel dx="5462" dy="1022" grid="0" gridSize="10" guides="1" tooltips="1" connect="1" arrows="1" fold="1" page="1" pageScale="1" pageWidth="1200" pageHeight="1600" background="none" math="0" shadow="1">
            <root>
                <mxCell id="0"/>
                <mxCell id="1" parent="0"/>
                <mxCell id="21" style="edgeStyle=none;html=1;entryX=0;entryY=0.5;entryDx=0;entryDy=0;exitX=1;exitY=0.5;exitDx=0;exitDy=0;rounded=0;" parent="1" source="3" target="6" edge="1">
                    <mxGeometry relative="1" as="geometry"/>
                </mxCell>
                <mxCell id="3" value="前缀和数组" style="swimlane;whiteSpace=wrap;html=1;rounded=0;" parent="1" vertex="1">
                    <mxGeometry x="-90" y="1019" width="200" height="250" as="geometry"/>
                </mxCell>
                <mxCell id="34" style="edgeStyle=none;html=1;exitX=0.5;exitY=1;exitDx=0;exitDy=0;entryX=0.5;entryY=0;entryDx=0;entryDy=0;rounded=0;" parent="3" source="19" target="33" edge="1">
                    <mxGeometry relative="1" as="geometry"/>
                </mxCell>
                <mxCell id="19" value="基础必会&lt;br&gt;&lt;br&gt;303&lt;br&gt;304" style="whiteSpace=wrap;html=1;rounded=0;" parent="3" vertex="1">
                    <mxGeometry x="40" y="50" width="120" height="88" as="geometry"/>
                </mxCell>
                <mxCell id="33" value="2559" style="whiteSpace=wrap;html=1;rounded=0;" parent="3" vertex="1">
                    <mxGeometry x="40" y="171" width="120" height="43" as="geometry"/>
                </mxCell>
                <mxCell id="5" value="单调栈" style="swimlane;whiteSpace=wrap;html=1;rounded=0;" parent="1" vertex="1">
                    <mxGeometry x="-90" y="619" width="200" height="310" as="geometry"/>
                </mxCell>
                <UserObject label="239&lt;br&gt;1475&lt;br&gt;84" id="17">
                    <mxCell style="whiteSpace=wrap;html=1;rounded=0;" parent="5" vertex="1">
                        <mxGeometry x="47.5" y="220" width="105" height="60" as="geometry"/>
                    </mxCell>
                </UserObject>
                <mxCell id="24" style="edgeStyle=none;html=1;exitX=0.5;exitY=1;exitDx=0;exitDy=0;entryX=0.5;entryY=0;entryDx=0;entryDy=0;rounded=0;" parent="5" source="22" target="17" edge="1">
                    <mxGeometry relative="1" as="geometry"/>
                </mxCell>
                <mxCell id="22" value="基础必会&lt;br&gt;&lt;br&gt;496&lt;br&gt;503&lt;br&gt;739" style="whiteSpace=wrap;html=1;rounded=0;" parent="5" vertex="1">
                    <mxGeometry x="40" y="40" width="120" height="100" as="geometry"/>
                </mxCell>
                <mxCell id="6" value="前缀和+单调栈" style="swimlane;whiteSpace=wrap;html=1;rounded=0;" parent="1" vertex="1">
                    <mxGeometry x="450" y="979" width="120" height="100" as="geometry"/>
                </mxCell>
                <mxCell id="18" value="85" style="whiteSpace=wrap;html=1;rounded=0;" parent="6" vertex="1">
                    <mxGeometry x="40" y="40" width="40" height="30" as="geometry"/>
                </mxCell>
                <mxCell id="9" value="" style="endArrow=classic;html=1;exitX=1;exitY=0.5;exitDx=0;exitDy=0;entryX=0;entryY=0.5;entryDx=0;entryDy=0;rounded=0;" parent="1" source="5" target="6" edge="1">
                    <mxGeometry width="50" height="50" relative="1" as="geometry">
                        <mxPoint x="-80" y="779" as="sourcePoint"/>
                        <mxPoint x="-30" y="729" as="targetPoint"/>
                    </mxGeometry>
                </mxCell>
                <mxCell id="25" value="DP+单调栈" style="swimlane;whiteSpace=wrap;html=1;startSize=23;rounded=0;" parent="1" vertex="1">
                    <mxGeometry x="440" y="649" width="120" height="100" as="geometry"/>
                </mxCell>
                <mxCell id="26" value="2560" style="whiteSpace=wrap;html=1;rounded=0;" parent="25" vertex="1">
                    <mxGeometry x="40" y="40" width="40" height="30" as="geometry"/>
                </mxCell>
                <mxCell id="28" value="" style="endArrow=classic;html=1;exitX=1;exitY=0.5;exitDx=0;exitDy=0;entryX=0;entryY=0.5;entryDx=0;entryDy=0;rounded=0;" parent="1" source="5" target="25" edge="1">
                    <mxGeometry width="50" height="50" relative="1" as="geometry">
                        <mxPoint x="180" y="724" as="sourcePoint"/>
                        <mxPoint x="520" y="979" as="targetPoint"/>
                    </mxGeometry>
                </mxCell>
                <mxCell id="31" style="edgeStyle=none;html=1;exitX=1;exitY=0.5;exitDx=0;exitDy=0;entryX=0;entryY=0.5;entryDx=0;entryDy=0;rounded=0;" parent="1" source="30" target="25" edge="1">
                    <mxGeometry relative="1" as="geometry"/>
                </mxCell>
                <mxCell id="30" value="DP 求最值" style="swimlane;whiteSpace=wrap;html=1;rounded=0;container=0;" parent="1" vertex="1">
                    <mxGeometry x="-725" y="181" width="835" height="375" as="geometry">
                        <mxRectangle x="-90" y="379" width="52" height="26" as="alternateBounds"/>
                    </mxGeometry>
                </mxCell>
                <mxCell id="37" style="edgeStyle=none;html=1;exitX=1;exitY=0.5;exitDx=0;exitDy=0;entryX=0;entryY=0.5;entryDx=0;entryDy=0;rounded=0;" parent="1" source="35" target="5" edge="1">
                    <mxGeometry relative="1" as="geometry"/>
                </mxCell>
                <mxCell id="35" value="栈 Stack，队列 Queue，双端队列 Deque" style="swimlane;whiteSpace=wrap;html=1;rounded=0;" parent="1" vertex="1">
                    <mxGeometry x="-600" y="595.5" width="268" height="357" as="geometry"/>
                </mxCell>
                <mxCell id="36" value="基础必会&lt;br&gt;&lt;br&gt;&lt;u&gt;20 括号对 (Stack)&lt;/u&gt;" style="whiteSpace=wrap;html=1;rounded=0;" parent="35" vertex="1">
                    <mxGeometry x="40" y="40" width="196" height="65" as="geometry"/>
                </mxCell>
                <mxCell id="39" value="&lt;font style=&quot;font-size: 12px;&quot;&gt;&lt;font face=&quot;Helvetica&quot;&gt;实现计算器&lt;br&gt;&lt;br&gt;&lt;u&gt;224 计算器I (Deque+递归)&lt;br&gt;227 计算器II (Deque)&lt;br&gt;772 (同227)&lt;/u&gt;&lt;br&gt;&lt;br&gt;注：224/227/772可以用stack做，但是会很复杂，用deque更佳&lt;/font&gt;&lt;br&gt;&lt;/font&gt;" style="whiteSpace=wrap;html=1;hachureGap=4;fontFamily=Architects Daughter;fontSource=https%3A%2F%2Ffonts.googleapis.com%2Fcss%3Ffamily%3DArchitects%2BDaughter;fontSize=20;" parent="35" vertex="1">
                    <mxGeometry x="40" y="115" width="195" height="204" as="geometry"/>
                </mxCell>
                <mxCell id="41" style="edgeStyle=none;html=1;exitX=1;exitY=0.5;exitDx=0;exitDy=0;entryX=0;entryY=0.5;entryDx=0;entryDy=0;fontFamily=Helvetica;" parent="1" source="40" target="35" edge="1">
                    <mxGeometry relative="1" as="geometry"/>
                </mxCell>
                <mxCell id="40" value="递归 DFS" style="swimlane;whiteSpace=wrap;html=1;fontFamily=Helvetica;" parent="1" vertex="1">
                    <mxGeometry x="-1020" y="713.5" width="200" height="121" as="geometry"/>
                </mxCell>
                <mxCell id="44" value="基础必会&lt;br&gt;&lt;br&gt;&lt;u&gt;17 (电话号码)&lt;/u&gt;" style="whiteSpace=wrap;html=1;fontFamily=Helvetica;" parent="40" vertex="1">
                    <mxGeometry x="40" y="43" width="120" height="60" as="geometry"/>
                </mxCell>
                <mxCell id="45" value="差分数组" style="swimlane;whiteSpace=wrap;html=1;" parent="1" vertex="1">
                    <mxGeometry x="-90" y="1314" width="200" height="139" as="geometry"/>
                </mxCell>
                <mxCell id="46" value="1094&lt;br&gt;1109&lt;br&gt;370" style="whiteSpace=wrap;html=1;" parent="45" vertex="1">
                    <mxGeometry x="40" y="48" width="120" height="60" as="geometry"/>
                </mxCell>
                <mxCell id="47" value="线性DP&lt;br&gt;&lt;br&gt;&lt;u&gt;45 Jump II&lt;br&gt;&lt;/u&gt;91&lt;br&gt;119&lt;br&gt;&lt;u&gt;198 打家劫舍 I&lt;br&gt;213 打家劫舍 II&lt;br&gt;&lt;/u&gt;&lt;u&gt;740 点数劫舍&lt;/u&gt;&lt;br&gt;213&lt;br&gt;338&lt;br&gt;467&lt;br&gt;576&lt;br&gt;650&lt;br&gt;678&lt;br&gt;688&lt;br&gt;799&lt;br&gt;808&lt;br&gt;978&lt;br&gt;1137" style="whiteSpace=wrap;html=1;container=0;" parent="1" vertex="1">
                    <mxGeometry x="-49" y="220" width="120" height="308" as="geometry"/>
                </mxCell>
                <mxCell id="55" style="edgeStyle=none;html=1;exitX=1;exitY=0.5;exitDx=0;exitDy=0;entryX=0;entryY=0.5;entryDx=0;entryDy=0;" parent="1" source="52" target="30" edge="1">
                    <mxGeometry relative="1" as="geometry"/>
                </mxCell>
                <mxCell id="52" value="贪心" style="swimlane;whiteSpace=wrap;html=1;" parent="1" vertex="1">
                    <mxGeometry x="-1020" y="327" width="200" height="83" as="geometry"/>
                </mxCell>
                <mxCell id="53" value="&lt;u&gt;55 Jump I&lt;/u&gt;" style="whiteSpace=wrap;html=1;" parent="52" vertex="1">
                    <mxGeometry x="40" y="36" width="120" height="34" as="geometry"/>
                </mxCell>
                <mxCell id="48" value="背包DP&lt;br&gt;&lt;br&gt;279&lt;br&gt;322&lt;br&gt;416&lt;br&gt;474&lt;br&gt;494&lt;br&gt;518&lt;br&gt;638&lt;br&gt;1049&lt;br&gt;1155&lt;br&gt;1995" style="whiteSpace=wrap;html=1;container=0;" parent="1" vertex="1">
                    <mxGeometry x="-317" y="220" width="120" height="246" as="geometry"/>
                </mxCell>
                <mxCell id="50" value="记忆化搜索&lt;br&gt;&lt;br&gt;375&lt;br&gt;464&lt;br&gt;494&lt;br&gt;576&lt;br&gt;1137" style="whiteSpace=wrap;html=1;container=0;" parent="1" vertex="1">
                    <mxGeometry x="-180" y="220" width="120" height="247" as="geometry"/>
                </mxCell>
                <mxCell id="56" value="基本思想&lt;br&gt;&lt;br&gt;&lt;u&gt;509 Fib&lt;br&gt;1137 Tribonacci&lt;br&gt;70 爬梯子&lt;br&gt;746 爬梯子 II&lt;br&gt;53 最大子数组和&lt;br&gt;&lt;/u&gt;" style="whiteSpace=wrap;html=1;container=0;" parent="1" vertex="1">
                    <mxGeometry x="-697" y="220" width="151" height="245" as="geometry"/>
                </mxCell>
                <mxCell id="59" value="套路(I) 第一类基本型时间序列型&lt;br&gt;&lt;br&gt;&lt;u&gt;198 打家劫舍 I&lt;/u&gt;&lt;br&gt;&lt;u&gt;213 打家劫舍 II&lt;/u&gt;&lt;br&gt;&lt;u&gt;123 股票 III&lt;br&gt;309 股票+冷却时间&lt;br&gt;376 wiggle&lt;br&gt;276 粉刷栅栏&lt;br&gt;256 三色粉刷房子&lt;br&gt;265 粉刷房子 II&lt;br&gt;1289 下降路径最小和 II&lt;br&gt;487 最大连续1的个数 II&lt;br&gt;1186 删除1次子数组最大和&lt;br&gt;&lt;/u&gt;" style="whiteSpace=wrap;html=1;container=0;" parent="1" vertex="1">
                    <mxGeometry x="-523" y="220" width="191" height="245" as="geometry"/>
                </mxCell>
                <mxCell id="57" value="双指针" style="swimlane;whiteSpace=wrap;html=1;container=0;" parent="1" vertex="1">
                    <mxGeometry x="-1423" y="1019" width="1093" height="991" as="geometry"/>
                </mxCell>
                <mxCell id="69" value="滑动窗口&lt;br&gt;&lt;br&gt;&lt;u style=&quot;caret-color: rgb(0, 0, 0);&quot;&gt;3. 无重复字符的最长子串&lt;/u&gt;" style="whiteSpace=wrap;html=1;fontFamily=Helvetica;fontSize=12;fontColor=#F0F0F0;container=0;" vertex="1" parent="57">
                    <mxGeometry x="44" y="54" width="173" height="91" as="geometry"/>
                </mxCell>
                <mxCell id="63" value="&lt;div style=&quot;margin: 0.75em 0px; unicode-bidi: plaintext; caret-color: rgb(0, 0, 0); -webkit-tap-highlight-color: rgba(0, 0, 0, 0.4);&quot;&gt;777. 在LR字符串中交换相邻字符&lt;/div&gt;&lt;div style=&quot;margin: 0.75em 0px; unicode-bidi: plaintext; caret-color: rgb(0, 0, 0); -webkit-tap-highlight-color: rgba(0, 0, 0, 0.4);&quot;&gt;786. 第 K 个最小的素数分数&lt;/div&gt;&lt;div style=&quot;margin: 0.75em 0px; unicode-bidi: plaintext; caret-color: rgb(0, 0, 0); -webkit-tap-highlight-color: rgba(0, 0, 0, 0.4);&quot;&gt;809. 情感丰富的文字&lt;/div&gt;&lt;div style=&quot;margin: 0.75em 0px; unicode-bidi: plaintext; caret-color: rgb(0, 0, 0); -webkit-tap-highlight-color: rgba(0, 0, 0, 0.4);&quot;&gt;825. 适龄的朋友&lt;/div&gt;&lt;div style=&quot;margin: 0.75em 0px; unicode-bidi: plaintext; caret-color: rgb(0, 0, 0); -webkit-tap-highlight-color: rgba(0, 0, 0, 0.4);&quot;&gt;832. 翻转图像&lt;/div&gt;&lt;div style=&quot;margin: 0.75em 0px; unicode-bidi: plaintext; caret-color: rgb(0, 0, 0); -webkit-tap-highlight-color: rgba(0, 0, 0, 0.4);&quot;&gt;838. 推多米诺&lt;/div&gt;&lt;div style=&quot;margin: 0.75em 0px; unicode-bidi: plaintext; caret-color: rgb(0, 0, 0); -webkit-tap-highlight-color: rgba(0, 0, 0, 0.4);&quot;&gt;870. 优势洗牌&lt;/div&gt;&lt;div style=&quot;margin: 0.75em 0px; unicode-bidi: plaintext; caret-color: rgb(0, 0, 0); -webkit-tap-highlight-color: rgba(0, 0, 0, 0.4);&quot;&gt;881. 救生艇&lt;/div&gt;&lt;div style=&quot;margin: 0.75em 0px; unicode-bidi: plaintext; caret-color: rgb(0, 0, 0); -webkit-tap-highlight-color: rgba(0, 0, 0, 0.4);&quot;&gt;904. 水果成篮&lt;/div&gt;&lt;div style=&quot;margin: 0.75em 0px; unicode-bidi: plaintext; caret-color: rgb(0, 0, 0); -webkit-tap-highlight-color: rgba(0, 0, 0, 0.4);&quot;&gt;905. 按奇偶排序数组&lt;/div&gt;&lt;div style=&quot;margin: 0.75em 0px; unicode-bidi: plaintext; caret-color: rgb(0, 0, 0); -webkit-tap-highlight-color: rgba(0, 0, 0, 0.4);&quot;&gt;917. 仅仅反转字母&lt;/div&gt;&lt;div style=&quot;margin: 0.75em 0px; unicode-bidi: plaintext; caret-color: rgb(0, 0, 0); -webkit-tap-highlight-color: rgba(0, 0, 0, 0.4);&quot;&gt;930. 和相同的二元子数组&lt;/div&gt;&lt;div style=&quot;margin: 0.75em 0px; unicode-bidi: plaintext; caret-color: rgb(0, 0, 0); -webkit-tap-highlight-color: rgba(0, 0, 0, 0.4);&quot;&gt;942. 增减字符串匹配&lt;/div&gt;&lt;div style=&quot;margin: 0.75em 0px; unicode-bidi: plaintext; caret-color: rgb(0, 0, 0); -webkit-tap-highlight-color: rgba(0, 0, 0, 0.4);&quot;&gt;946. 验证栈序列&lt;/div&gt;&lt;div style=&quot;margin: 0.75em 0px; unicode-bidi: plaintext; caret-color: rgb(0, 0, 0); -webkit-tap-highlight-color: rgba(0, 0, 0, 0.4);&quot;&gt;992. K 个不同整数的子数组&lt;/div&gt;&lt;div style=&quot;margin: 0.75em 0px; unicode-bidi: plaintext; caret-color: rgb(0, 0, 0); -webkit-tap-highlight-color: rgba(0, 0, 0, 0.4);&quot;&gt;1004. 最大连续1的个数 III&lt;/div&gt;&lt;div style=&quot;margin: 0.75em 0px; unicode-bidi: plaintext; caret-color: rgb(0, 0, 0); -webkit-tap-highlight-color: rgba(0, 0, 0, 0.4);&quot;&gt;1021. 删除最外层的括号&lt;/div&gt;&lt;div style=&quot;margin: 0.75em 0px; unicode-bidi: plaintext; caret-color: rgb(0, 0, 0); -webkit-tap-highlight-color: rgba(0, 0, 0, 0.4);&quot;&gt;1052. 爱生气的书店老板&lt;/div&gt;&lt;div style=&quot;margin: 0.75em 0px; unicode-bidi: plaintext; caret-color: rgb(0, 0, 0); -webkit-tap-highlight-color: rgba(0, 0, 0, 0.4);&quot;&gt;1089. 复写零&lt;/div&gt;&lt;div style=&quot;margin: 0.75em 0px; unicode-bidi: plaintext; caret-color: rgb(0, 0, 0); -webkit-tap-highlight-color: rgba(0, 0, 0, 0.4);&quot;&gt;1092. 最短公共超序列&lt;/div&gt;&lt;div style=&quot;margin: 0.75em 0px; unicode-bidi: plaintext; caret-color: rgb(0, 0, 0); -webkit-tap-highlight-color: rgba(0, 0, 0, 0.4);&quot;&gt;1221. 分割平衡字符串&lt;/div&gt;&lt;div style=&quot;margin: 0.75em 0px; unicode-bidi: plaintext; caret-color: rgb(0, 0, 0); -webkit-tap-highlight-color: rgba(0, 0, 0, 0.4);&quot;&gt;1332. 删除回文子序列&lt;/div&gt;&lt;div style=&quot;margin: 0.75em 0px; unicode-bidi: plaintext; caret-color: rgb(0, 0, 0); -webkit-tap-highlight-color: rgba(0, 0, 0, 0.4);&quot;&gt;1417. 重新格式化字符串&lt;/div&gt;&lt;div style=&quot;margin: 0.75em 0px; unicode-bidi: plaintext; caret-color: rgb(0, 0, 0); -webkit-tap-highlight-color: rgba(0, 0, 0, 0.4);&quot;&gt;1446. 连续字符&lt;/div&gt;&lt;div style=&quot;margin: 0.75em 0px; unicode-bidi: plaintext; caret-color: rgb(0, 0, 0); -webkit-tap-highlight-color: rgba(0, 0, 0, 0.4);&quot;&gt;1455. 检查单词是否为句中其他单词的前缀&lt;/div&gt;&lt;div style=&quot;margin: 0.75em 0px; unicode-bidi: plaintext; caret-color: rgb(0, 0, 0); -webkit-tap-highlight-color: rgba(0, 0, 0, 0.4);&quot;&gt;1537. 最大得分&lt;/div&gt;&lt;div style=&quot;margin: 0.75em 0px; unicode-bidi: plaintext; caret-color: rgb(0, 0, 0); -webkit-tap-highlight-color: rgba(0, 0, 0, 0.4);&quot;&gt;1592. 重新排列单词间的空格&lt;/div&gt;&lt;div style=&quot;margin: 0.75em 0px; unicode-bidi: plaintext; caret-color: rgb(0, 0, 0); -webkit-tap-highlight-color: rgba(0, 0, 0, 0.4);&quot;&gt;1610. 可见点的最大数目&lt;/div&gt;&lt;div style=&quot;margin: 0.75em 0px; unicode-bidi: plaintext; caret-color: rgb(0, 0, 0); -webkit-tap-highlight-color: rgba(0, 0, 0, 0.4);&quot;&gt;1662. 检查两个字符串数组是否相等&lt;/div&gt;&lt;div style=&quot;margin: 0.75em 0px; unicode-bidi: plaintext; caret-color: rgb(0, 0, 0); -webkit-tap-highlight-color: rgba(0, 0, 0, 0.4);&quot;&gt;1697. 检查边长度限制的路径是否存在&lt;/div&gt;&lt;div style=&quot;margin: 0.75em 0px; unicode-bidi: plaintext; caret-color: rgb(0, 0, 0); -webkit-tap-highlight-color: rgba(0, 0, 0, 0.4);&quot;&gt;1743. 从相邻元素对还原数组&lt;/div&gt;&lt;div style=&quot;margin: 0.75em 0px; unicode-bidi: plaintext; caret-color: rgb(0, 0, 0); -webkit-tap-highlight-color: rgba(0, 0, 0, 0.4);&quot;&gt;1748. 唯一元素的和&lt;/div&gt;&lt;div style=&quot;margin: 0.75em 0px; unicode-bidi: plaintext; caret-color: rgb(0, 0, 0); -webkit-tap-highlight-color: rgba(0, 0, 0, 0.4);&quot;&gt;1759. 统计同构子字符串的数目&lt;/div&gt;&lt;div style=&quot;margin: 0.75em 0px; unicode-bidi: plaintext; caret-color: rgb(0, 0, 0); -webkit-tap-highlight-color: rgba(0, 0, 0, 0.4);&quot;&gt;1764. 通过连接另一个数组的子数组得到一个数组&lt;/div&gt;&lt;div style=&quot;margin: 0.75em 0px; unicode-bidi: plaintext; caret-color: rgb(0, 0, 0); -webkit-tap-highlight-color: rgba(0, 0, 0, 0.4);&quot;&gt;2000. 反转单词前缀&lt;/div&gt;&lt;div style=&quot;margin: 0.75em 0px; unicode-bidi: plaintext; caret-color: rgb(0, 0, 0); -webkit-tap-highlight-color: rgba(0, 0, 0, 0.4);&quot;&gt;2024. 考试的最大困扰度&lt;/div&gt;&lt;div style=&quot;margin: 0.75em 0px; unicode-bidi: plaintext; caret-color: rgb(0, 0, 0); -webkit-tap-highlight-color: rgba(0, 0, 0, 0.4);&quot;&gt;2047. 句子中的有效单词数&lt;/div&gt;" style="whiteSpace=wrap;html=1;fontFamily=Helvetica;fontSize=12;fontColor=#F0F0F0;container=0;" vertex="1" parent="1">
                    <mxGeometry x="-736.2416918429003" y="1073" width="363.89728096676737" height="913" as="geometry"/>
                </mxCell>
                <mxCell id="58" value="&lt;u&gt;2563 范围内的数对&lt;/u&gt;&lt;br&gt;&lt;div style=&quot;margin: 0.75em 0px; unicode-bidi: plaintext; caret-color: rgb(0, 0, 0); -webkit-tap-highlight-color: rgba(0, 0, 0, 0.4);&quot;&gt;&lt;br&gt;&lt;/div&gt;&lt;div style=&quot;margin: 0.75em 0px; unicode-bidi: plaintext; caret-color: rgb(0, 0, 0); -webkit-tap-highlight-color: rgba(0, 0, 0, 0.4);&quot;&gt;11. 盛最多水的容器&lt;/div&gt;&lt;div style=&quot;margin: 0.75em 0px; unicode-bidi: plaintext; caret-color: rgb(0, 0, 0); -webkit-tap-highlight-color: rgba(0, 0, 0, 0.4);&quot;&gt;15. 三数之和&lt;/div&gt;&lt;div style=&quot;margin: 0.75em 0px; unicode-bidi: plaintext; caret-color: rgb(0, 0, 0); -webkit-tap-highlight-color: rgba(0, 0, 0, 0.4);&quot;&gt;16. 最接近的三数之和&lt;/div&gt;&lt;div style=&quot;margin: 0.75em 0px; unicode-bidi: plaintext; caret-color: rgb(0, 0, 0); -webkit-tap-highlight-color: rgba(0, 0, 0, 0.4);&quot;&gt;18. 四数之和&lt;/div&gt;&lt;div style=&quot;margin: 0.75em 0px; unicode-bidi: plaintext; caret-color: rgb(0, 0, 0); -webkit-tap-highlight-color: rgba(0, 0, 0, 0.4);&quot;&gt;19. 删除链表的倒数第 N 个结点&lt;/div&gt;&lt;div style=&quot;margin: 0.75em 0px; unicode-bidi: plaintext; caret-color: rgb(0, 0, 0); -webkit-tap-highlight-color: rgba(0, 0, 0, 0.4);&quot;&gt;26. 删除有序数组中的重复项&lt;/div&gt;&lt;div style=&quot;margin: 0.75em 0px; unicode-bidi: plaintext; caret-color: rgb(0, 0, 0); -webkit-tap-highlight-color: rgba(0, 0, 0, 0.4);&quot;&gt;27. 移除元素&lt;/div&gt;&lt;div style=&quot;margin: 0.75em 0px; unicode-bidi: plaintext; caret-color: rgb(0, 0, 0); -webkit-tap-highlight-color: rgba(0, 0, 0, 0.4);&quot;&gt;45. 跳跃游戏 II&lt;/div&gt;&lt;div style=&quot;margin: 0.75em 0px; unicode-bidi: plaintext; caret-color: rgb(0, 0, 0); -webkit-tap-highlight-color: rgba(0, 0, 0, 0.4);&quot;&gt;75. 颜色分类&lt;/div&gt;&lt;div style=&quot;margin: 0.75em 0px; unicode-bidi: plaintext; caret-color: rgb(0, 0, 0); -webkit-tap-highlight-color: rgba(0, 0, 0, 0.4);&quot;&gt;88. 合并两个有序数组&lt;/div&gt;&lt;div style=&quot;margin: 0.75em 0px; unicode-bidi: plaintext; caret-color: rgb(0, 0, 0); -webkit-tap-highlight-color: rgba(0, 0, 0, 0.4);&quot;&gt;141. 环形链表&lt;/div&gt;&lt;div style=&quot;margin: 0.75em 0px; unicode-bidi: plaintext; caret-color: rgb(0, 0, 0); -webkit-tap-highlight-color: rgba(0, 0, 0, 0.4);&quot;&gt;142. 环形链表 II&lt;/div&gt;&lt;div style=&quot;margin: 0.75em 0px; unicode-bidi: plaintext; caret-color: rgb(0, 0, 0); -webkit-tap-highlight-color: rgba(0, 0, 0, 0.4);&quot;&gt;345. 反转字符串中的元音字母&lt;/div&gt;&lt;div style=&quot;margin: 0.75em 0px; unicode-bidi: plaintext; caret-color: rgb(0, 0, 0); -webkit-tap-highlight-color: rgba(0, 0, 0, 0.4);&quot;&gt;395. 至少有 K 个重复字符的最长子串&lt;/div&gt;&lt;div style=&quot;margin: 0.75em 0px; unicode-bidi: plaintext; caret-color: rgb(0, 0, 0); -webkit-tap-highlight-color: rgba(0, 0, 0, 0.4);&quot;&gt;413. 等差数列划分&lt;/div&gt;&lt;div style=&quot;margin: 0.75em 0px; unicode-bidi: plaintext; caret-color: rgb(0, 0, 0); -webkit-tap-highlight-color: rgba(0, 0, 0, 0.4);&quot;&gt;424. 替换后的最长重复字符&lt;/div&gt;&lt;div style=&quot;margin: 0.75em 0px; unicode-bidi: plaintext; caret-color: rgb(0, 0, 0); -webkit-tap-highlight-color: rgba(0, 0, 0, 0.4);&quot;&gt;436. 寻找右区间&lt;/div&gt;&lt;div style=&quot;margin: 0.75em 0px; unicode-bidi: plaintext; caret-color: rgb(0, 0, 0); -webkit-tap-highlight-color: rgba(0, 0, 0, 0.4);&quot;&gt;438. 找到字符串中所有字母异位词&lt;/div&gt;&lt;div style=&quot;margin: 0.75em 0px; unicode-bidi: plaintext; caret-color: rgb(0, 0, 0); -webkit-tap-highlight-color: rgba(0, 0, 0, 0.4);&quot;&gt;443. 压缩字符串&lt;/div&gt;&lt;div style=&quot;margin: 0.75em 0px; unicode-bidi: plaintext; caret-color: rgb(0, 0, 0); -webkit-tap-highlight-color: rgba(0, 0, 0, 0.4);&quot;&gt;468. 验证IP地址&lt;/div&gt;&lt;div style=&quot;margin: 0.75em 0px; unicode-bidi: plaintext; caret-color: rgb(0, 0, 0); -webkit-tap-highlight-color: rgba(0, 0, 0, 0.4);&quot;&gt;475. 供暖器&lt;/div&gt;&lt;div style=&quot;margin: 0.75em 0px; unicode-bidi: plaintext; caret-color: rgb(0, 0, 0); -webkit-tap-highlight-color: rgba(0, 0, 0, 0.4);&quot;&gt;481. 神奇字符串&lt;/div&gt;&lt;div style=&quot;margin: 0.75em 0px; unicode-bidi: plaintext; caret-color: rgb(0, 0, 0); -webkit-tap-highlight-color: rgba(0, 0, 0, 0.4);&quot;&gt;485. 最大连续 1 的个数&lt;/div&gt;&lt;div style=&quot;margin: 0.75em 0px; unicode-bidi: plaintext; caret-color: rgb(0, 0, 0); -webkit-tap-highlight-color: rgba(0, 0, 0, 0.4);&quot;&gt;519. 随机翻转矩阵&lt;/div&gt;&lt;div style=&quot;margin: 0.75em 0px; unicode-bidi: plaintext; caret-color: rgb(0, 0, 0); -webkit-tap-highlight-color: rgba(0, 0, 0, 0.4);&quot;&gt;524. 通过删除字母匹配到字典里最长单词&lt;/div&gt;&lt;div style=&quot;margin: 0.75em 0px; unicode-bidi: plaintext; caret-color: rgb(0, 0, 0); -webkit-tap-highlight-color: rgba(0, 0, 0, 0.4);&quot;&gt;532. 数组中的 k-diff 数对&lt;/div&gt;&lt;div style=&quot;margin: 0.75em 0px; unicode-bidi: plaintext; caret-color: rgb(0, 0, 0); -webkit-tap-highlight-color: rgba(0, 0, 0, 0.4);&quot;&gt;556. 下一个更大元素 III&lt;/div&gt;&lt;div style=&quot;margin: 0.75em 0px; unicode-bidi: plaintext; caret-color: rgb(0, 0, 0); -webkit-tap-highlight-color: rgba(0, 0, 0, 0.4);&quot;&gt;581. 最短无序连续子数组&lt;/div&gt;&lt;div style=&quot;margin: 0.75em 0px; unicode-bidi: plaintext; caret-color: rgb(0, 0, 0); -webkit-tap-highlight-color: rgba(0, 0, 0, 0.4);&quot;&gt;594. 最长和谐子序列&lt;/div&gt;&lt;div style=&quot;margin: 0.75em 0px; unicode-bidi: plaintext; caret-color: rgb(0, 0, 0); -webkit-tap-highlight-color: rgba(0, 0, 0, 0.4);&quot;&gt;611. 有效三角形的个数&lt;/div&gt;&lt;div style=&quot;margin: 0.75em 0px; unicode-bidi: plaintext; caret-color: rgb(0, 0, 0); -webkit-tap-highlight-color: rgba(0, 0, 0, 0.4);&quot;&gt;633. 平方数之和&lt;/div&gt;&lt;div style=&quot;margin: 0.75em 0px; unicode-bidi: plaintext; caret-color: rgb(0, 0, 0); -webkit-tap-highlight-color: rgba(0, 0, 0, 0.4);&quot;&gt;640. 求解方程&lt;/div&gt;&lt;div style=&quot;margin: 0.75em 0px; unicode-bidi: plaintext; caret-color: rgb(0, 0, 0); -webkit-tap-highlight-color: rgba(0, 0, 0, 0.4);&quot;&gt;653. 两数之和 IV - 输入 BST&lt;/div&gt;&lt;div style=&quot;margin: 0.75em 0px; unicode-bidi: plaintext; caret-color: rgb(0, 0, 0); -webkit-tap-highlight-color: rgba(0, 0, 0, 0.4);&quot;&gt;658. 找到 K 个最接近的元素&lt;/div&gt;&lt;div style=&quot;margin: 0.75em 0px; unicode-bidi: plaintext; caret-color: rgb(0, 0, 0); -webkit-tap-highlight-color: rgba(0, 0, 0, 0.4);&quot;&gt;719. 找出第 K 小的数对距离&lt;/div&gt;" style="whiteSpace=wrap;html=1;container=0;" parent="1" vertex="1">
                    <mxGeometry x="-1175.56" y="1069" width="408.89" height="917" as="geometry"/>
                </mxCell>
            </root>
        </mxGraphModel>
    </diagram>
</mxfile>